HIERARCHY
ROOT Hips
{
	OFFSET	0.000000	0.000000	0.000000
	CHANNELS 6 Xposition Yposition Zposition Zrotation Xrotation Yrotation
	JOINT LeftHip
	{
		OFFSET	5.500000	0.000000	0.000000
		CHANNELS 3 Zrotation Xrotation Yrotation
		JOINT LeftKnee
		{
			OFFSET	0.000000	-15.000000	0.000000
			CHANNELS 3 Zrotation Xrotation Yrotation
			JOINT LeftAnkle
			{
				OFFSET	0.000000	-17.500000	0.000000
				CHANNELS 3 Zrotation Xrotation Yrotation
				End Site
				{
					OFFSET	0.000000	-4.500000	-3.000000
				}
			}
		}
	}
	JOINT RightHip
	{
		OFFSET	-5.500000	0.000000	0.000000
		CHANNELS 3 Zrotation Xrotation Yrotation
		JOINT RightKnee
		{
			OFFSET	0.000000	-15.000000	0.000000
			CHANNELS 3 Zrotation Xrotation Yrotation
			JOINT RightAnkle
			{
				OFFSET	0.000000	-17.500000	0.000000
				CHANNELS 3 Zrotation Xrotation Yrotation
				End Site
				{
					OFFSET	0.000000	-4.500000	-3.000000
				}
			}
		}
	}
	JOINT Chest
	{
		OFFSET	0.000000	3.000000	-1.000000
		CHANNELS 3 Zrotation Xrotation Yrotation
		JOINT LeftCollar
		{
			OFFSET	0.000000	18.000000	1.000000
			CHANNELS 3 Zrotation Xrotation Yrotation
			JOINT LeftShoulder
			{
				OFFSET	7.500000	0.000000	0.000000
				CHANNELS 3 Zrotation Xrotation Yrotation
				JOINT LeftElbow
				{
					OFFSET	0.000000	-11.000000	0.000000
					CHANNELS 3 Zrotation Xrotation Yrotation
					JOINT LeftWrist
					{
						OFFSET	0.000000	-11.000000	0.000000
						CHANNELS 3 Zrotation Xrotation Yrotation
						End Site
						{
							OFFSET	0.000000	-7.000000	0.000000
						}
					}
				}
			}
		}
		JOINT RightCollar
		{
			OFFSET	0.000000	18.000000	1.000000
			CHANNELS 3 Zrotation Xrotation Yrotation
			JOINT RightShoulder
			{
				OFFSET	-7.500000	0.000000	0.000000
				CHANNELS 3 Zrotation Xrotation Yrotation
				JOINT RightElbow
				{
					OFFSET	0.000000	-11.000000	0.000000
					CHANNELS 3 Zrotation Xrotation Yrotation
					JOINT RightWrist
					{
						OFFSET	0.000000	-11.000000	0.000000
						CHANNELS 3 Zrotation Xrotation Yrotation
						End Site
						{
							OFFSET	0.000000	-7.000000	0.000000
						}
					}
				}
			}
		}
		JOINT Neck
		{
			OFFSET	0.000000	18.000000	1.000000
			CHANNELS 3 Zrotation Xrotation Yrotation
			JOINT Head
			{
				OFFSET	0.000000	2.000000	0.000000
				CHANNELS 3 Zrotation Xrotation Yrotation
				End Site
				{
					OFFSET	0.000000	7.000000	0.000000
				}
			}
		}
	}
}
MOTION
Frames:     7
Frame Time: 0.033333
297.234955	37.403934	9.381936	-11.219800	-1.058304	-54.843418	4.960520	5.466254	17.380568	0.000000	15.880207	0.000000	-4.687223	5.933000	-12.242457	2.968481	3.379157	-20.037560	0.000000	58.413200	0.000000	27.596569	-25.849003	14.646213	3.011557	5.819861	-3.081458	8.295331	7.813927	-1.135601	3.362153	12.599215	4.214539	-2.000000	-31.465227	0.000000	-10.354020	-6.055336	1.735255	8.295331	7.813927	-1.135601	-9.468476	9.201929	-16.394751	2.000000	-49.580132	0.000000	14.011574	-0.611173	13.514743	-0.080566	0.000000	0.000000	4.716199	9.334741	8.282199	
297.013702	36.895023	10.026789	-11.938663	-3.279533	-54.781620	3.359287	7.159324	17.699295	0.000000	19.827356	0.000000	-6.367317	-3.498729	-10.203763	-0.175318	0.277632	-20.372755	0.000000	67.728577	0.000000	26.849976	-23.764154	17.255907	0.922558	8.313632	-4.524100	8.615661	7.568446	-1.143252	2.495332	12.602205	5.418781	-2.000000	-25.889303	0.000000	-11.412809	-5.653572	1.734496	8.615661	7.568446	-1.143252	-8.383980	10.123818	-19.401648	2.000000	-47.321899	0.000000	13.164470	-2.360027	12.542127	-0.080566	0.000000	0.000000	4.566069	10.239902	10.009948	
297.167694	36.251919	10.446341	-12.445839	-7.394333	-54.757229	-0.043932	8.692031	17.590021	0.000000	23.544022	0.000000	-7.379669	-9.610568	-8.295062	-6.238211	-4.022892	-18.709389	0.000000	76.032890	0.000000	24.605757	-16.606365	17.718496	-2.919237	11.052888	-7.078021	8.296935	7.893651	-1.147336	2.123642	12.199801	5.726313	-2.000000	-22.547680	0.000000	-11.596057	-4.324023	0.839717	8.296935	7.893651	-1.147336	-6.659752	9.751123	-23.008402	2.000000	-45.108414	0.000000	12.025609	-1.210247	10.756059	-0.080566	0.000000	0.000000	4.001488	11.311049	11.959131	
297.321350	35.725533	10.991907	-13.212358	-10.726118	-54.992699	-3.310136	10.289603	16.669605	0.000000	26.295900	0.000000	-8.304908	-13.710653	-4.434940	-8.968567	-7.385132	-16.331848	0.000000	81.085159	0.000000	19.512381	-6.501818	18.557333	-5.868989	13.959431	-8.152593	7.903117	8.539940	-1.180936	2.493469	11.595163	5.653253	-2.000000	-20.238581	0.000000	-11.479437	-2.223113	0.376956	7.903117	8.539940	-1.180936	-5.806151	10.163672	-23.577892	2.000000	-41.516281	0.000000	10.968320	-1.296138	8.908003	-0.080566	0.000000	0.000000	4.008293	8.510778	9.771791	
297.916992	35.512093	11.313441	-14.279702	-11.819389	-55.094467	-5.036659	10.986149	14.758912	0.000000	27.101080	0.000000	-9.964026	-16.447674	-1.146491	-8.491346	-10.536399	-15.555163	0.000000	82.880013	0.000000	14.440461	4.450942	21.241940	-5.864355	15.409622	-8.798299	7.419147	8.789273	-1.139880	4.459621	10.679587	5.296362	-2.000000	-19.431339	0.000000	-11.649049	-1.336997	0.225582	7.419147	8.789273	-1.139880	-4.330696	9.875529	-24.640093	2.000000	-36.850323	0.000000	10.217478	-2.941687	7.191834	-0.080566	0.000000	0.000000	5.367903	6.541291	7.037703	
297.715820	35.449215	11.614040	-14.423077	-11.358116	-55.109489	-5.036659	10.986149	13.711549	0.000000	27.873308	0.000000	-10.284111	-17.509703	0.988164	-6.050765	-13.857934	-14.669823	0.000000	83.384621	0.000000	11.709233	8.332430	22.369116	-6.023845	15.410106	-8.401277	6.445268	9.047418	-1.017720	6.658354	9.650749	4.631450	-2.000000	-19.640846	0.000000	-12.139524	-1.396395	-0.107965	6.445268	9.047418	-1.017720	-3.838372	9.576581	-24.734095	2.000000	-32.635303	0.000000	9.678344	-3.411506	5.627253	-0.080566	0.000000	0.000000	6.120254	8.053577	6.837145	
297.641144	35.471653	11.767634	-13.953981	-10.704061	-54.703117	-5.033960	10.720654	12.891549	0.000000	27.457254	0.000000	-10.541613	-17.982193	2.021160	-4.049993	-16.473324	-13.564738	0.000000	82.320824	0.000000	12.749065	3.947517	17.562881	-5.785882	15.006555	-8.150528	6.441008	8.807244	-0.990265	7.992892	8.828720	4.490977	-2.000000	-20.935827	0.000000	-12.309369	-1.465735	-0.524167	6.441008	8.807244	-0.990265	-4.082261	9.373921	-22.783260	2.000000	-29.100161	0.000000	9.608082	-2.764376	4.467156	-0.080566	0.000000	0.000000	5.673808	7.826595	6.725824	
